<?xml version="1.0" encoding="utf-8"?>
<!-- Generator: Adobe Illustrator 22.0.1, SVG Export Plug-In . SVG Version: 6.00 Build 0)  -->
<svg version="1.1" id="Layer_1" xmlns="http://www.w3.org/2000/svg" xmlns:xlink="http://www.w3.org/1999/xlink" x="0px" y="0px"
	 viewBox="0 0 77.4 30.3" style="enable-background:new 0 0 77.4 30.3;" xml:space="preserve">
<style type="text/css">
	.st0{fill:#FFFFFF;}
</style>
<title>logo-white</title>
<g id="a">
	<path class="st0" d="M10,8.3L5.1,19.1H3.5L9.1,7C9.4,7,9.7,7.7,10,8.3z M5.8,7c0.2,0,0.6,0.6,0.8,1.3L1.8,19.1H0.2L5.8,7L5.8,7z"/>
	<path class="st0" d="M7.3,28.4c0-1.1-0.8-1.5-1.6-1.9c-0.5-0.3-1-0.5-1-0.9c0-0.4,0.4-0.6,0.9-0.6c0.4,0,0.8,0.2,1.1,0.5l0.4-0.7
		c-0.4-0.4-0.9-0.6-1.5-0.6c0,0,0,0-0.1,0c-0.9-0.1-1.7,0.6-1.7,1.5c0,0.9,0.8,1.3,1.4,1.6c0.1,0,0.1,0.1,0.2,0.1
		c0.5,0.2,0.9,0.5,0.9,1.1c0,0.5-0.4,0.8-1,0.8c-0.5,0-1.1-0.2-1.4-0.6l-0.5,0.6C4,29.7,4.6,30,5.3,30C6.6,30,7.3,29.2,7.3,28.4z
		 M18.4,27.1C18.4,27.1,18.4,27.1,18.4,27.1c0-1.7-1.4-3-3-3c0,0-0.1,0-0.1,0c-1.7,0.1-3,1.5-3,3.1c0.1,1.7,1.5,3,3.1,3
		C17.1,30.2,18.4,28.8,18.4,27.1L18.4,27.1z M17.4,27.1C17.4,27.1,17.4,27.1,17.4,27.1c0,1.2-1,2.1-2.1,2.1c-1.1-0.1-2-1-2-2.1
		c0,0,0,0,0-0.1c0-1.2,1-2.1,2.1-2C16.5,25,17.4,25.9,17.4,27.1L17.4,27.1z M26.7,27.4h-1.8v2.5H24v-5.6h3.2v0.8h-2.3v1.4h1.8
		L26.7,27.4z M36.6,25.1h-1.7v4.8H34v-4.8h-1.7v-0.8h4.2L36.6,25.1z M56.6,24.1l-2.9,5.8h1l0.5-1.1h2.7l0,0l0.5,1.1h1L56.6,24.1z
		 M55.7,28l0.9-2.1l1,2.1H55.7z M66.7,27.7L66.7,27.7c0.9-0.1,1.5-0.8,1.5-1.7c0-1.4-1.3-1.7-2.4-1.7h-1.2v5.6h0.9v-2.1h0.2l0,0
		l1.9,2.1h1.3L66.7,27.7z M65.6,27v-1.9h0.5c0.8,0,1.2,0.3,1.2,1c0,0.4-0.3,1-1.3,1L65.6,27z M74.9,25.1v1.4h1.9v0.8h-1.9v1.7h2.4
		v0.8H74v-5.6h3.3v0.8L74.9,25.1z M53.5,2.2c-1.9,0.3-1.9,0.3-2.2,2.2c-0.3-1.9-0.3-1.9-2.2-2.2C51,1.9,51.1,1.9,51.3,0
		C51.6,1.8,51.7,1.9,53.5,2.2z M68.2,9.5l0,9.6h-1.5v-12h1.5l7.6,9.6l0-9.6h1.5v12h-1.5L68.2,9.5z M60.1,8.2C59.8,7.7,59.5,7,59.2,7
		l-5.7,12.1h1.6l1.3-3h5.7l0,0l1.3,3h1.6L60.1,8.2z M57.2,14.8l2.2-4.9l2.2,4.9H57.2z M52.1,7.1v12h-1.5v-12L52.1,7.1z M48.8,13.1
		c0.1-1.7-0.6-3.4-1.9-4.5c-1.3-1-2.9-1.6-4.6-1.5h-3.1v12h2.9c1.7,0.1,3.4-0.5,4.8-1.6C48.2,16.4,48.9,14.8,48.8,13.1L48.8,13.1z
		 M47.2,13.1c0,3-1.8,4.7-5,4.7h-1.5V8.4h1.6c1.3,0,2.5,0.4,3.5,1.2C46.7,10.5,47.3,11.8,47.2,13.1L47.2,13.1z M32.6,8.2
		C32.4,7.7,32,7,31.8,7l-5.7,12.1h1.6l1.3-3h5.7l0,0l1.3,3h1.6L32.6,8.2z M29.7,14.8l2.2-4.9l2.2,4.9H29.7z M21,6.9
		c1.6,0,3.1,0.5,4.2,1.6l-0.8,1c-0.9-0.9-2.2-1.4-3.5-1.3c-0.1,0-0.2,0-0.3,0c-2.6,0.2-4.5,2.4-4.4,5c0,1.3,0.5,2.5,1.5,3.4
		c0.9,0.9,2.2,1.4,3.5,1.4c1.3,0.1,2.5-0.4,3.4-1.2l0.7,1c-1.1,1-2.6,1.6-4.1,1.5c0,0-0.1,0-0.1,0c-3.5,0-6.3-2.8-6.4-6.2
		c0-1.6,0.6-3.2,1.8-4.4C17.7,7.5,19.3,6.9,21,6.9z M6.8,16.2l0.6-1.4h4.1l-2.1-4.6l0.7-1.6l4.9,10.5h-1.6l-1.3-3l0,0L6.8,16.2z
		 M49.6,24.3l-2.2,5.8l-1.8-3.9l-1.8,3.9l-2.2-5.8h1l1.3,3.6l1.7-3.8l1.7,3.8l1.3-3.6L49.6,24.3z"/>
</g>
</svg>
