<svg viewBox="0 0 105 20" xmlns="http://www.w3.org/2000/svg"><path d="M86.208 8.281c-.978-.48-2.634-.869-3.057-1.895-.17-.41-.108-.95.043-1.255.471-.967 2.093-.955 2.566.066.117.254.143.66.149.99h4.234c-.041-1.992-.709-3.341-1.774-4.339-1.017-.95-2.52-1.629-4.534-1.497-1.9.127-3.23.953-4.213 2.05-.946 1.056-1.653 2.768-1.198 4.802.567 2.531 2.642 3.622 4.77 4.537 1 .43 2.255.839 2.374 2.137.127 1.425-1.299 2.171-2.417 1.541-.738-.415-1.152-1.205-1.349-2.224h-4.34c.251 1.466.79 2.525 1.411 3.568.64 1.074 1.416 1.892 2.566 2.4 1.15.51 2.846.658 4.213.33 1.323-.314 2.316-.985 3.102-1.848.834-.918 1.37-1.956 1.497-3.48.284-3.397-1.87-4.817-4.043-5.882zm-54.127 6.784c-.044-.255-.224-.602-.342-.903-1.76-4.515-3.525-8.941-5.263-13.437h-3.72c-1.59 4.038-3.122 8.138-4.727 12.159h-4.812c-.578.85-1.172 1.375-2.245 1.696-1.103.33-2.25.389-3.316-.021A4.826 4.826 0 014.62 9.668C4.781 7.4 6.317 5.815 8.212 5.352c1.874-.46 3.48.289 4.363 1.255.315.344.562.737.835 1.145h4.94c-.565-2.188-1.633-3.812-3.144-5.088C13.756 1.44 11.876.43 9.282.44 5.405.455 2.88 2.538 1.39 5 .593 6.315 0 7.912 0 9.911c0 2.028.426 3.689 1.262 5.066 1.567 2.58 4.031 4.502 7.805 4.647 2.04.079 3.584-.458 4.898-1.255 1.315-.798 2.321-1.789 3.165-3.105 0 .021-.016.026-.021.044a659.458 659.458 0 01-1.54 3.986h5.132c.296-.85.543-1.746.856-2.577h6.032c.281.863.57 1.717.856 2.577h3.635V16.12c0-.342.054-.74 0-1.056h.001zm-9.345-2.181c.58-1.927 1.183-3.832 1.753-5.77.645 1.896 1.236 3.851 1.881 5.749-1.17.05-2.43.007-3.635.021h.001zM67.708.725c-2.414 6.17-4.794 12.375-7.185 18.569h5.132c.287-.858.534-1.755.856-2.577h6.03c.26.877.58 1.694.835 2.577h5.282C76.298 13.14 73.821 6.92 71.431.725h-3.722zm-.021 12.159c.572-1.928 1.166-3.836 1.754-5.75.633 1.904 1.253 3.82 1.86 5.75h-3.614zM48.439 7.73c-.042-.247-.229-.582-.342-.86-.829-2.022-1.738-4.08-2.523-6.034h-1.626v10.132c-2.023-3.12-4.168-6.438-6.309-9.537-.126-.184-.354-.558-.47-.595-.248-.077-.656 0-.963 0h-2.952c-.024.004-.024.036-.021.066v18.392h4.47V9.25c2.279 3.32 4.468 6.733 6.758 10.043h3.978V9.184c0-.485.072-1.03 0-1.454zM61.422.836c-1.53 4.43-3.212 8.703-4.683 13.193-1.154-3.353-2.43-6.655-3.637-9.91-.408-1.101-.768-2.213-1.24-3.283h-4.898c-.036.008.005.028 0 .066 2.376 6.128 4.754 12.256 7.123 18.392h5.024c2.33-6.141 4.64-12.3 6.952-18.457h-4.641zm31.645 4.517C94.77 3.599 96.53 1.79 98.221 0h-.17c-.32.038-.675.04-.985.088-1.36 1.37-2.807 2.892-4.213 4.34-.18.185-.533.446-.578.637-.081.35.06.74.043 1.014.274-.206.507-.478.75-.726zm-.407 1.981C94.902 5.076 97.261 2.64 99.504.33c.064-.066.195-.173.15-.22a4.632 4.632 0 00-.964-.086c-2.1 2.16-4.221 4.3-6.287 6.498.084.27.148.566.256.813h.001zm.6 1.036a275.276 275.276 0 013.23-3.326c.185-.585.543-.995 1.133-1.168 1.026-1.065 2.12-2.207 3.142-3.26.052-.052.17-.102.15-.197-.235-.118-.536-.165-.812-.243-2.436 2.506-4.893 4.99-7.292 7.533.138.233.258.484.449.66zm-.684-4.097c1.243-1.41 3.87-4.075 3.913-4.075h-.043s-1.277.34-1.733.684c-.303.227-1.537 1.504-1.774 1.828-.356.484-.459 1.146-.621 1.74.072.051.203-.115.258-.177zm5.645-.507c.341 0 .662.023.899.133a74.791 74.791 0 002.887-2.973c-.233-.122-.438-.27-.707-.354 0-.012-.002-.025-.021-.021-.953.99-1.984 2.064-2.93 3.039-.042.043-.154.087-.128.177v-.001zm1.796.86c.94-1.015 1.946-1.963 2.866-2.995-.185-.169-.36-.35-.577-.486-.935.894-1.91 1.94-2.845 2.908.24.135.388.364.556.572v.001zm.15.352c.086.264.15.614.108.947a98.378 98.378 0 003.314-3.414c-.158-.218-.28-.476-.513-.617-.712.792-1.494 1.561-2.225 2.314-.24.247-.497.49-.683.77zm-7.4 10.33l10.629-10.947c.202-.206.706-.647.706-.814 0-.27-.243-.497-.342-.727-.907.903-3.232 3.25-3.493 3.577-.263.326-.321.53-.57.739-.25.211-.283.182-.407.287-.327.277-.636.654-.94.969l-6.117 6.3c-.167.17-.435.432-.449.528-.038.271.19.543.213.815.284-.203.52-.47.77-.726zm.621.97l2.224-2.291c.14-.145.385-.359.427-.484.07-.207.023-.325.065-.507.206-.895.764-1.493 1.518-1.696.173-.047.4-.006.642-.088.227-.077.558-.555.77-.772 1.566-1.612 3.062-3.132 4.619-4.736.2-.206.692-.628.728-.837.047-.295-.115-.616-.15-.902 0-.013-.003-.026-.022-.023-3.498 3.668-7.073 7.309-10.587 10.926-.5.519-1.015 1.024-1.475 1.586.11.232.234.45.343.684.332-.254.606-.56.897-.861l.001.001zm10.993-10.881c-1.798 1.871-3.72 3.79-5.498 5.66-.038.04-.124.104-.107.177.294.058.554.151.792.264 1.31-1.34 2.73-2.79 4.064-4.163.192-.199.49-.438.577-.616.175-.366.142-.918.172-1.322zM96.745 6.85c-1.266 1.295-2.8 2.862-4.127 4.229-.207.212-.483.442-.578.616-.215.397-.219.962-.32 1.432 1.855-1.842 3.748-3.835 5.602-5.749-.236-.13-.413-.323-.577-.528zm1.903.726c-.329.05-.664.027-.983-.066-1.678 1.697-3.541 3.648-5.261 5.419-.222.228-.676.57-.728.793-.079.342.045.747.044 1.014 2.22-2.239 4.558-4.653 6.779-6.94.066-.067.191-.168.15-.22zm3.23 3.635c-.468.51-1.012.953-1.39 1.475.094.256.147.553.171.881a92.914 92.914 0 003.208-3.303c-.175-.203-.314-.441-.534-.596a96.374 96.374 0 00-1.455 1.543zm2.096 2.203c.171-.177.845-.766.855-.97.016-.297-.174-.562-.256-.815C102 14.253 99.38 17 96.83 19.626c-.077.08-.232.165-.193.242.219-.015.61.189.92.11.1-.024.334-.3.47-.44 2.014-2.076 3.937-4.055 5.946-6.123zm.47-2.158c-.12-.237-.225-.49-.384-.684-.795.722-1.738 1.79-2.588 2.665-.269.276-.714.606-.835.903-.109.271-.122.537-.234.771-.327.682-.852 1.18-1.775 1.255-.824.839-1.673 1.7-2.483 2.533-.27.28-.553.55-.768.86.266.077.514.175.811.22 2.072-2.06 4.15-4.25 6.203-6.365.692-.715 1.42-1.395 2.053-2.158zm.471 1.65c-2.294 2.279-4.592 4.741-6.886 7.093h.662c.103-.053.316.004.45-.044.205-.073.535-.507.748-.726 1.72-1.773 3.426-3.562 5.111-5.266v-.351c-.045-.217-.024-.505-.085-.705zm-10.908-3.82c.432-.436.86-.873 1.284-1.32.408-.42.815-.842 1.22-1.267a1.71 1.71 0 01-.194-.903c-.964.923-1.965 1.999-2.93 2.995.096.082.161.156.278.264l.009.006c-.592.793-1.109 1.55-1.206 1.797l.024-.023a.453.453 0 00-.024.048c.509-.536 1.023-1.067 1.54-1.597h-.001zm9.88-1.566l.002-.003c-.246.262-.495.519-.745.778l-.656.676c-.383.387-.764.778-1.142 1.173-.225.23-.448.463-.669.696a66.57 66.57 0 00-.692.72l.01.008-.127.134c.209.152.353.37.47.617.984-.927 1.878-1.944 2.823-2.908-.103-.085-.208-.168-.312-.251.58-.779 1.083-1.518 1.178-1.762l-.024.024.024-.05-.14.148zm-7.87 6.49c-1.088 1.169-2.243 2.27-3.314 3.458.16.194.307.404.47.595a85.94 85.94 0 003.101-3.194c-.132-.237-.167-.577-.256-.859zm1.242 1.96c-.99 1.014-1.998 2.01-2.952 3.062.215.138.453.253.684.375a88.03 88.03 0 003.144-3.239c-.362.006-.612-.102-.876-.198zm-.791-.726c-.997 1.052-2.02 2.075-3.016 3.127.218.15.376.362.62.484a230.508 230.508 0 002.952-3.04c-.235-.139-.386-.365-.556-.571zm7.87 1.431l-.28.301c-.827.854-1.7 1.702-2.43 2.54 1.307-.76 2.427-1.864 3.066-3.215-.119.13-.242.261-.366.392l.01-.018zm-4.599 3.216c.408-.13.994-.134 1.39-.353.288-.157.613-.631.9-.925l1.795-1.85c.282-.29.76-.642.898-.925.19-.39.186-.963.236-1.387-1.68 1.734-3.478 3.525-5.112 5.286-.035.038-.142.073-.107.153v.001z" fill="#fff"/></svg>
