<svg xmlns="http://www.w3.org/2000/svg" viewBox="0 0 582.249 55.301"><defs><clipPath clipPathUnits="userSpaceOnUse" id="a"><path d="M0 41.476h436.687V0H0z"/></clipPath></defs><g clip-path="url(#a)" transform="matrix(1.33333 0 0 -1.33333 0 55.3)" fill="#fff"><path d="M18.973 15.618v-5.38c0-6.478-3.239-10.18-9.487-10.18C3.24.057 0 3.76 0 10.237v21.057c0 6.478 3.24 10.18 9.486 10.18 6.248 0 9.487-3.702 9.487-10.18V27.36h-6.016v4.34c0 2.893-1.273 3.992-3.297 3.992-2.025 0-3.297-1.099-3.297-3.992V9.834C6.363 6.941 7.635 5.9 9.66 5.9c2.024 0 3.297 1.041 3.297 3.934v5.784zM30.658.52h-6.363v40.492h6.363V23.66h7.231v17.354h6.478V.52H37.89v17.353h-7.23zm25.858 12.842h6.132L59.582 33.84zM71.036.52h-6.421l-1.1 7.347h-7.81L54.608.52h-5.842l6.479 40.492h9.313zm10.759 34.708V6.304h3.586c2.025 0 3.24 1.042 3.24 3.934v21.056c0 2.892-1.215 3.934-3.24 3.934zm-6.363 5.784h10.065c6.363 0 9.487-3.528 9.487-10.007V10.528C94.984 4.048 91.86.52 85.497.52H75.432zm39.162-18.915L112.28.52h-8.734l-4.513 40.492h6.19l3.413-31.931 3.066 31.93h6.131l3.182-32.161 3.297 32.162h5.553L125.353.52h-8.445zm19.9 18.916h6.363V.521h-6.363zm30.89-25.395v-5.38c0-6.478-3.24-10.18-9.486-10.18-6.248 0-9.488 3.702-9.488 10.18v21.057c0 6.478 3.24 10.18 9.488 10.18 6.247 0 9.486-3.702 9.486-10.18v-3.934h-6.016V31.7c0 2.893-1.272 3.992-3.297 3.992-2.025 0-3.297-1.099-3.297-3.992V9.834c0-2.893 1.272-3.934 3.297-3.934 2.025 0 3.297 1.041 3.297 3.934v5.784zm13.652 1.042l-1.967-3.703V.52h-6.363v40.493h6.363V23.37l8.33 17.643h6.364l-8.85-18.048L191.762.52h-6.538zm45.93-1.042v-5.38c0-6.478-3.24-10.18-9.486-10.18-6.248 0-9.488 3.702-9.488 10.18v21.057c0 6.478 3.24 10.18 9.488 10.18 6.247 0 9.486-3.702 9.486-10.18v-3.934h-6.016V31.7c0 2.893-1.272 3.992-3.297 3.992-2.025 0-3.297-1.099-3.297-3.992V9.834c0-2.893 1.272-3.934 3.297-3.934 2.025 0 3.297 1.041 3.297 3.934v5.784zm11.164-5.784c0-2.893 1.273-3.991 3.298-3.991 2.025 0 3.298 1.098 3.298 3.991v21.865c0 2.893-1.273 3.992-3.298 3.992-2.025 0-3.297-1.099-3.297-3.992zm-6.362 21.461c0 6.478 3.413 10.181 9.66 10.181 6.248 0 9.66-3.703 9.66-10.181V10.238c0-6.478-3.412-10.18-9.66-10.18-6.247 0-9.66 3.702-9.66 10.18zm30.542-1.446V.52h-5.727v40.492h7.983l6.537-24.237v24.237h5.67V.52h-6.538zm29.04 11.627c6.189 0 9.37-3.702 9.37-10.181v-1.272h-6.015V31.7c0 2.892-1.157 3.992-3.181 3.992-2.025 0-3.182-1.1-3.182-3.992 0-8.33 12.437-9.892 12.437-21.461 0-6.48-3.24-10.181-9.487-10.181s-9.487 3.702-9.487 10.18v2.488h6.017V9.834c0-2.892 1.272-3.933 3.297-3.933 2.024 0 3.296 1.04 3.296 3.933 0 8.33-12.436 9.892-12.436 21.46 0 6.48 3.182 10.182 9.37 10.182m20.594-.463V9.776c0-2.892 1.272-3.933 3.297-3.933 2.025 0 3.298 1.04 3.298 3.933v31.237h6.015V10.18c0-6.48-3.239-10.18-9.486-10.18-6.248 0-9.487 3.702-9.487 10.18v30.833zm18.396 0h6.363V6.305h10.47V.52H328.34zm16.313 0h19.668v-5.784h-6.652V.52h-6.364v34.708h-6.652zm23.891 0h6.363V.521h-6.363zm18.105-11.164V.52h-5.727v40.492h7.983l6.537-24.237v24.237h5.67V.52h-6.538zm30.022-6.769h8.909V10.238c0-6.478-3.24-10.18-9.486-10.18-6.248 0-9.487 3.702-9.487 10.18v21.057c0 6.478 3.239 10.181 9.487 10.181 6.247 0 9.486-3.703 9.486-10.18V27.36h-6.015v4.34c0 2.893-1.273 3.992-3.298 3.992-2.025 0-3.297-1.099-3.297-3.992V9.834c0-2.893 1.272-3.934 3.297-3.934 2.025 0 3.298 1.041 3.298 3.934v7.462h-2.893zM436.687.521h-6.132v6.132h6.132z"/></g></svg>