<svg xmlns="http://www.w3.org/2000/svg" viewBox="0 0 1080 175" version="1.1" id="svg53"><defs id="defs4"><style id="style2">.cls-1,.cls-2{fill:#fff}</style></defs><g id="Swirl" fill="#fff" fill-opacity="1"><path class="cls-1" d="M124.73 151.66A87.52 87.52 0 01103.89 3.08a149.81 149.81 0 0136.52-.6 87.51 87.51 0 00-15.68 149.18z" id="path8" fill="#fff" fill-opacity="1"/><path class="cls-1" d="M124.73 151.66A87.5 87.5 0 0145.24 24.45 149.9 149.9 0 0178.42 9a87.51 87.51 0 0046.31 142.71z" id="path10" fill="#fff" fill-opacity="1"/><path class="cls-1" d="M124.73 151.66A87.53 87.53 0 01.36 67.75a150.31 150.31 0 0124-27.55 87.52 87.52 0 00100.37 111.46z" id="path12" fill="#fff" fill-opacity="1"/></g><g id="Concision_-_White" data-name="Concision - White" fill="#fff" fill-opacity="1"><path class="cls-2" d="M687.24 137.5v-100h9v100z" id="path15" fill="#fff" fill-opacity="1"/><path class="cls-2" d="M731.27 119.28c4 4.62 12 11.36 25.61 11.36 11.88 0 20.72-7.13 20.72-18.35 0-28.38-46.2-21.78-46.2-51.48 0-16.5 13.86-25.35 28.51-25.35 12.67 0 21.52 6.73 24.55 10l-5.37 6.64A26.2 26.2 0 00760 44c-9.5 0-18.74 5.15-18.74 15.84 0 23.89 46.46 16.77 46.46 52.28 0 13.59-11.48 27.19-31.68 27.19-13.86 0-26.26-7.53-30.36-13.2z" id="path17" fill="#fff" fill-opacity="1"/><path class="cls-2" d="M822.24 137.5v-100h9v100z" id="path19" fill="#fff" fill-opacity="1"/><path class="cls-2" d="M356.74 35.56a52 52 0 1052 52 52 52 0 00-52-52zm.5 94.75A42.75 42.75 0 11400 87.56a42.75 42.75 0 01-42.76 42.75z" id="path21" fill="#fff" fill-opacity="1"/><path class="cls-2" d="M911.74 35.5a52 52 0 1052 52 52 52 0 00-52-52zm.5 94.75A42.75 42.75 0 11955 87.5a42.75 42.75 0 01-42.76 42.75z" id="path23" fill="#fff" fill-opacity="1"/><path class="cls-2" d="M606.74 130.5a43 43 0 1137.93-63.27L652.6 63a52 52 0 100 49l-7.93-4.24a43 43 0 01-37.93 22.74z" id="path25" fill="#fff" fill-opacity="1"/><path class="cls-2" id="polygon27" fill="#fff" fill-opacity="1" d="M524.76 37.53v102.32l-76.53-81.42v79.04h-9.51V35.53l76.54 81.4v-79.4h9.5z"/><path class="cls-2" id="polygon29" fill="#fff" fill-opacity="1" d="M1079.76 37.53v102.32l-76.53-81.42v79.04h-9.51V35.53l76.54 81.4v-79.4h9.5z"/><path class="cls-2" d="M231.74 130.5a43 43 0 1137.93-63.27L277.6 63a52 52 0 100 49l-7.93-4.24a43 43 0 01-37.93 22.74z" id="path31" fill="#fff" fill-opacity="1"/></g><g id="Concision_-_Black" data-name="Concision - Black" fill="#fff" fill-opacity="1"><path class="cls-2" d="M687.24 137.5v-100h9v100z" id="path34" fill="#fff" fill-opacity="1"/><path class="cls-2" d="M731.27 119.28c4 4.62 12 11.36 25.61 11.36 11.88 0 20.72-7.13 20.72-18.35 0-28.38-46.2-21.78-46.2-51.48 0-16.5 13.86-25.35 28.51-25.35 12.67 0 21.52 6.73 24.55 10l-5.37 6.64A26.2 26.2 0 00760 44c-9.5 0-18.74 5.15-18.74 15.84 0 23.89 46.46 16.77 46.46 52.28 0 13.59-11.48 27.19-31.68 27.19-13.86 0-26.26-7.53-30.36-13.2z" id="path36" fill="#fff" fill-opacity="1"/><path class="cls-2" d="M822.24 137.5v-100h9v100z" id="path38" fill="#fff" fill-opacity="1"/><path class="cls-2" d="M356.74 35.56a52 52 0 1052 52 52 52 0 00-52-52zm.5 94.75A42.75 42.75 0 11400 87.56a42.75 42.75 0 01-42.76 42.75z" id="path40" fill="#fff" fill-opacity="1"/><path class="cls-2" d="M911.74 35.5a52 52 0 1052 52 52 52 0 00-52-52zm.5 94.75A42.75 42.75 0 11955 87.5a42.75 42.75 0 01-42.76 42.75z" id="path42" fill="#fff" fill-opacity="1"/><path class="cls-2" d="M606.74 130.5a43 43 0 1137.93-63.27L652.6 63a52 52 0 100 49l-7.93-4.24a43 43 0 01-37.93 22.74z" id="path44" fill="#fff" fill-opacity="1"/><path class="cls-2" id="polygon46" fill="#fff" fill-opacity="1" d="M524.76 37.53v102.32l-76.53-81.42v79.04h-9.51V35.53l76.54 81.4v-79.4h9.5z"/><path class="cls-2" id="polygon48" fill="#fff" fill-opacity="1" d="M1079.76 37.53v102.32l-76.53-81.42v79.04h-9.51V35.53l76.54 81.4v-79.4h9.5z"/><path class="cls-2" d="M231.74 130.5a43 43 0 1137.93-63.27L277.6 63a52 52 0 100 49l-7.93-4.24a43 43 0 01-37.93 22.74z" id="path50" fill="#fff" fill-opacity="1"/></g></svg>