<svg width="338" height="56" fill="none" xmlns="http://www.w3.org/2000/svg"><path d="M94.824 51.71V14.354h6.831l17.557 26.31v-26.31h6.831V51.71h-6.831l-17.557-26.256V51.71h-6.831zM143.051 52.35c-3.309 0-5.87-1.031-7.685-3.095-1.779-2.063-2.668-5.087-2.668-9.072V25.241h6.777v14.302c0 2.277.463 4.02 1.388 5.23.925 1.21 2.384 1.814 4.376 1.814 1.886 0 3.433-.676 4.643-2.028 1.245-1.352 1.868-3.237 1.868-5.657V25.241h6.831v26.47h-6.031l-.534-4.483c-.818 1.565-2.01 2.81-3.575 3.735-1.53.925-3.327 1.388-5.39 1.388zM163.085 51.71l9.605-13.235-9.605-13.234h7.311l6.724 9.392 6.671-9.392h7.364l-9.659 13.234 9.659 13.235h-7.364l-6.671-9.392-6.724 9.392h-7.311zM207.301 51.71c-2.775 0-4.999-.676-6.671-2.028-1.672-1.352-2.508-3.753-2.508-7.204V30.95h-4.536v-5.71h4.536l.8-7.098h6.031v7.098h7.151v5.71h-7.151v11.58c0 1.281.267 2.17.8 2.669.57.462 1.53.693 2.882.693h3.309v5.817h-4.643zM218.129 51.71V14.354h6.831v32.02h16.543v5.336h-23.374zM256.488 52.35c-2.277 0-4.145-.355-5.604-1.067-1.459-.747-2.544-1.725-3.255-2.935-.712-1.21-1.068-2.544-1.068-4.002 0-2.455.961-4.447 2.882-5.977 1.921-1.53 4.803-2.295 8.646-2.295h6.724v-.64c0-1.815-.516-3.149-1.548-4.003-1.032-.854-2.313-1.28-3.842-1.28-1.388 0-2.597.337-3.629 1.013-1.032.64-1.672 1.601-1.921 2.882h-6.671c.178-1.921.818-3.593 1.921-5.016 1.138-1.423 2.597-2.509 4.376-3.256 1.779-.782 3.771-1.174 5.977-1.174 3.771 0 6.742.943 8.912 2.829 2.17 1.885 3.256 4.554 3.256 8.005V51.71h-5.817l-.641-4.269c-.782 1.423-1.885 2.597-3.308 3.522-1.388.925-3.185 1.388-5.39 1.388zm1.547-5.336c1.957 0 3.469-.64 4.536-1.921 1.103-1.28 1.797-2.864 2.082-4.75h-5.817c-1.815 0-3.113.338-3.896 1.014-.783.64-1.174 1.441-1.174 2.402 0 1.032.391 1.832 1.174 2.401.783.57 1.814.854 3.095.854zM293.852 52.35c-1.993 0-3.736-.373-5.23-1.12a9.429 9.429 0 01-3.629-3.149l-.747 3.63h-6.084V13.286h6.831V29.03c.854-1.174 1.975-2.206 3.362-3.096 1.423-.889 3.255-1.334 5.497-1.334 2.49 0 4.714.605 6.671 1.815 1.956 1.21 3.504 2.864 4.642 4.963 1.139 2.099 1.708 4.483 1.708 7.15 0 2.67-.569 5.053-1.708 7.152-1.138 2.063-2.686 3.7-4.642 4.91-1.957 1.174-4.181 1.76-6.671 1.76zm-1.441-5.976c2.17 0 3.967-.73 5.39-2.188 1.423-1.459 2.135-3.345 2.135-5.657 0-2.313-.712-4.216-2.135-5.71-1.423-1.495-3.22-2.242-5.39-2.242-2.206 0-4.02.747-5.443 2.242-1.388 1.458-2.082 3.344-2.082 5.656 0 2.313.694 4.216 2.082 5.71 1.423 1.46 3.237 2.189 5.443 2.189zM323.915 52.35c-2.348 0-4.411-.373-6.19-1.12-1.779-.783-3.202-1.85-4.269-3.202-1.068-1.352-1.708-2.917-1.922-4.696h6.885c.213 1.032.782 1.921 1.707 2.668.961.712 2.188 1.067 3.683 1.067 1.494 0 2.579-.302 3.255-.907.711-.605 1.067-1.298 1.067-2.081 0-1.139-.498-1.904-1.494-2.295-.996-.427-2.384-.836-4.163-1.227a45.523 45.523 0 01-3.468-.907c-1.174-.356-2.26-.801-3.256-1.335-.96-.569-1.743-1.28-2.348-2.134-.605-.89-.907-1.975-.907-3.256 0-2.348.925-4.322 2.775-5.923 1.886-1.601 4.518-2.402 7.898-2.402 3.131 0 5.621.73 7.471 2.188 1.886 1.459 3.007 3.47 3.363 6.03h-6.458c-.391-1.956-1.868-2.934-4.429-2.934-1.281 0-2.277.249-2.989.747-.676.498-1.014 1.12-1.014 1.867 0 .783.516 1.406 1.548 1.868 1.032.463 2.401.89 4.109 1.281 1.85.427 3.54.907 5.07 1.441 1.565.498 2.811 1.263 3.736 2.295.925.996 1.387 2.437 1.387 4.322.036 1.637-.391 3.113-1.281 4.43-.889 1.316-2.17 2.348-3.842 3.095-1.672.747-3.647 1.12-5.924 1.12zM46.03 52.69h27.849c.885 0 1.754-.229 2.52-.665a5.003 5.003 0 001.844-1.819 4.914 4.914 0 00-.002-4.969L59.538 13.293a5.004 5.004 0 00-1.844-1.818 5.092 5.092 0 00-5.039 0 5.003 5.003 0 00-1.843 1.818l-4.783 8.174-9.35-15.983a5.005 5.005 0 00-1.845-1.818 5.095 5.095 0 00-5.039 0 5.006 5.006 0 00-1.845 1.818L4.676 45.237a4.914 4.914 0 00-.002 4.97 5.003 5.003 0 001.844 1.818 5.092 5.092 0 002.52.666H26.52c6.926 0 12.034-3 15.55-8.853l8.532-14.573 4.571-7.798L68.89 44.892H50.602l-4.573 7.799zm-19.795-7.806l-12.2-.003L32.323 13.65l9.125 15.616-6.11 10.438c-2.334 3.797-4.986 5.181-9.103 5.181z" fill="#fff"/></svg>
