<svg version="1.1" id="Layer_1" xmlns="http://www.w3.org/2000/svg" x="0" y="0" viewBox="0 0 162 60" xml:space="preserve"><style>.st1{fill:#001633}</style><path d="M-.1.4h98.3v25.3H162v34H0C-.1 59.7-.1 2.1-.1.4" fill="#fff"/><path class="st1" d="M5.7 7.6h3V25h-3zM26 25v-8.8c0-1.5-.3-1.9-1.3-1.9-.9 0-1.8.6-2.7 1.5V25h-2.6v-8.7c0-1.5-.3-2-1.4-2-.8 0-1.7.4-2.6 1.3V25h-2.7v-9.1c0-1.6-.2-2.5-.5-3.2l2.5-.7c.3.4.4.9.5 1.6 1-1 2.2-1.6 3.4-1.6 1.1 0 2.1.4 3 1.9 1.2-1.3 2.4-1.9 3.8-1.9 2.1 0 3.3 1.1 3.3 3.7V25H26zM38.1 14.3c-1 0-1.9.5-2.7 1.3V22c.7.7 1.5 1.1 2.4 1.1 1.9 0 2.7-1.4 2.7-4.4 0-2.8-.6-4.4-2.4-4.4m.3 11c-1.1 0-2.1-.4-3-1 0 .1.1.6.1 1.3v4.2l-2.7.7V15.6c0-1.6-.1-2.2-.3-3.2l2.5-.5c.1.4.2.8.2 1.6.8-1 2.1-1.5 3.4-1.5 2.6 0 4.8 1.9 4.8 6.4 0 4.2-1.8 6.9-5 6.9M51.4 14.1c-1.6 0-2.4 1.2-2.4 3.3h4.7c0-2.1-.9-3.3-2.3-3.3M49 19.4v.2c0 1.8.7 3.6 3.1 3.6 1.2 0 2.2-.4 3.2-1.3l1.1 1.7c-1.3 1.1-2.9 1.7-4.6 1.7-3.6 0-5.9-2.6-5.9-6.7 0-2.2.5-3.7 1.6-5 1-1.2 2.3-1.7 3.9-1.7 1.3 0 2.4.3 3.5 1.3s1.7 2.6 1.7 5.5v.6H49zM65.5 14.7c-.3-.1-.5-.2-.8-.2-1.2 0-2.1.9-2.4 1.9V25h-2.8v-9c0-1.6-.2-2.6-.5-3.4l2.5-.7c.3.6.5 1.3.5 2 1-1.4 2-2 3.2-2 .4 0 .7.1 1 .2l-.7 2.6zM68 25V12.5l2.8-.5v13H68zm1.4-14.6c-1 0-1.8-.8-1.8-1.8s.8-1.9 1.8-1.9 1.8.8 1.8 1.9c.1 1-.8 1.8-1.8 1.8M80.4 19c-2.8 0-3.6.8-3.6 2.4 0 1.2.7 2 1.8 2 .9 0 1.7-.5 2.3-1.3l.1-3c-.1-.1-.4-.1-.6-.1m2.9 6.6c-.8-.3-1.4-.9-1.7-1.7-1 1.2-2.1 1.6-3.5 1.6-2.9 0-4.2-1.6-4.2-3.8 0-2.9 2.2-4.4 6.3-4.4h.8v-.7c0-1.5-.3-2.2-1.8-2.2-1.6 0-3.4 1.2-3.8 1.5l-1.2-2c1.9-1.2 3.5-1.7 5.4-1.7 2 0 3.3.7 3.9 2.1.2.6.2 1.2.2 3.1V21c0 1.7.1 2.3 1.1 2.9l-1.5 1.7zM90.3 25.3c-2.8 0-2.8-2.5-2.8-3.6V10.9c0-1.7-.1-2.7-.3-3.7l2.8-.6c.2.8.2 1.8.2 3.5v10.8c0 1.7.1 2 .3 2.3.2.2.6.4.9.2l.5 1.7c-.5.1-1 .2-1.6.2M5.7 52V34.6h9.7L15 37H8.7v4.7H14v2.4H8.7v5.5h6.9V52z"/><g><path class="st1" d="M25.2 52v-8.4c0-1.7-.4-2.2-1.5-2.2-.8 0-2 .6-2.8 1.4V52h-2.7v-9.3c0-1.3-.1-2.1-.5-3l2.5-.7c.3.6.5 1.1.5 1.8 1.4-1.2 2.5-1.8 3.9-1.8 2 0 3.3 1.2 3.3 3.5V52h-2.7zM35.3 52.3c-2.5 0-3.3-1.5-3.3-3.3v-7.9h-1.4v-1.9H32c0-1.1 0-2.2.1-3.1l2.8-.7c-.1 1-.2 2.6-.2 3.8h3l-.7 2h-2.3v7.1c0 1.6.4 2 1.6 2 .4 0 .7-.1 1.2-.3l.4 1.7c-.9.5-1.7.6-2.6.6M44.8 41.1c-1.6 0-2.4 1.2-2.4 3.3H47c0-2.1-.9-3.3-2.2-3.3m-2.5 5.3v.2c0 1.8.7 3.6 3.1 3.6 1.2 0 2.2-.4 3.2-1.3l1.1 1.7c-1.3 1.1-2.9 1.7-4.6 1.7-3.6 0-5.9-2.6-5.9-6.7 0-2.2.5-3.7 1.6-5 1-1.2 2.3-1.7 3.9-1.7 1.3 0 2.4.3 3.5 1.3s1.7 2.6 1.7 5.5v.6h-7.6zM58.9 41.7c-.3-.1-.5-.2-.8-.2-1.2 0-2.1.9-2.4 1.9V52h-2.8v-9c0-1.6-.2-2.6-.5-3.4L55 39c.3.6.5 1.3.5 2 1-1.4 2-2 3.2-2 .4 0 .7.1 1 .2l-.8 2.5zM66.8 41.3c-1 0-1.9.5-2.7 1.3V49c.7.7 1.5 1.1 2.4 1.1 1.9 0 2.7-1.4 2.7-4.4 0-2.9-.6-4.4-2.4-4.4m.3 11c-1.1 0-2.1-.4-3-1 0 .1.1.6.1 1.3v4.2l-2.7.7V42.6c0-1.6-.1-2.2-.3-3.2l2.5-.5c.1.4.2.8.2 1.6.8-1 2.1-1.5 3.4-1.5 2.6 0 4.8 1.9 4.8 6.4.1 4.2-1.8 6.9-5 6.9M81.4 41.7c-.3-.1-.5-.2-.8-.2-1.2 0-2.1.9-2.4 1.9V52h-2.8v-9c0-1.6-.2-2.6-.5-3.4l2.5-.7c.3.6.5 1.3.5 2 1-1.4 2-2 3.2-2 .4 0 .7.1 1 .2l-.7 2.6zM83.8 52V39.5l2.8-.5v13h-2.8zm1.4-14.6c-1 0-1.8-.8-1.8-1.8s.8-1.9 1.8-1.9 1.8.8 1.8 1.9c.1 1-.8 1.8-1.8 1.8M94.1 52.4c-1.6 0-3.2-.5-4.9-1.4l1-2c1.1.7 2.7 1.3 4.1 1.3 1.2 0 2.1-.7 2.1-1.8 0-1-.6-1.5-2.1-1.8l-1.5-.3c-1.9-.4-3-1.7-3-3.5 0-2.4 1.9-4 4.7-4 1.7 0 3.1.5 4.2 1.1l-.9 1.9c-1.2-.6-2.1-.9-3.1-.9-1.2 0-1.9.7-1.9 1.6 0 .8.4 1.2 1.7 1.5l1.6.4c2.6.7 3.2 2.1 3.2 3.5 0 2.6-2.1 4.4-5.2 4.4M107 41.1c-1.6 0-2.4 1.2-2.4 3.3h4.7c0-2.1-.9-3.3-2.3-3.3m-2.4 5.3v.2c0 1.8.7 3.6 3.1 3.6 1.2 0 2.2-.4 3.2-1.3l1.1 1.7c-1.3 1.1-2.9 1.7-4.6 1.7-3.6 0-5.9-2.6-5.9-6.7 0-2.2.5-3.7 1.6-5 1-1.2 2.3-1.7 3.9-1.7 1.3 0 2.4.3 3.5 1.3s1.7 2.6 1.7 5.5v.6h-7.6z"/></g><path class="st1" d="M129.5 52h-8.9V34.6h2.9v15h6.5z"/><g><path class="st1" d="M137.9 46c-2.8 0-3.6.8-3.6 2.4 0 1.2.7 2 1.8 2 .9 0 1.7-.5 2.3-1.3v-3c0-.1-.3-.1-.5-.1m2.9 6.5c-.8-.3-1.4-.9-1.7-1.7-1 1.2-2.1 1.6-3.5 1.6-2.9 0-4.2-1.6-4.2-3.8 0-2.9 2.2-4.4 6.3-4.4h.9v-.7c0-1.5-.3-2.2-1.8-2.2-1.6 0-3.4 1.2-3.8 1.5l-1.2-2c1.9-1.2 3.5-1.7 5.4-1.7 2 0 3.3.7 3.9 2.1.2.6.2 1.2.2 3.1v3.6c0 1.7.1 2.3 1.1 2.9l-1.6 1.7zM150.2 41.3c-1.2 0-1.9.7-2.4 1.3v6.2c.6.6 1.4 1.1 2.4 1.1 1.7 0 2.5-1.3 2.5-4.4-.1-2.3-.5-4.2-2.5-4.2m.5 11c-1.3 0-2.3-.5-3.1-1.5-.1.7-.2.9-.4 1.2h-2.5c.2-.6.3-1.1.3-2.8v-12c0-1.5-.1-2.4-.3-3.1l2.9-.6c.2.9.2 1.5.2 2.5v3c0 .7 0 1.1-.1 1.2h.1c.9-.9 1.8-1.2 3-1.2 3 0 5 2.5 5 6.5s-2.2 6.8-5.1 6.8"/></g></svg>
