<?xml version="1.0" standalone="no"?>
<!DOCTYPE svg PUBLIC "-//W3C//DTD SVG 20010904//EN"
 "http://www.w3.org/TR/2001/REC-SVG-20010904/DTD/svg10.dtd">
<svg version="1.0" xmlns="http://www.w3.org/2000/svg"
 width="1000.000000pt" height="1000.000000pt" viewBox="0 0 1000.000000 1000.000000"
 preserveAspectRatio="xMidYMid meet">
<metadata>
Created by potrace 1.11, written by Peter Selinger 2001-2013
</metadata>
<g transform="translate(0.000000,1000.000000) scale(0.100000,-0.100000)"
fill="#000000" stroke="none">
<path d="M0 5000 l0 -5000 5000 0 5000 0 0 5000 0 5000 -5000 0 -5000 0 0
-5000z m5250 1220 c47 -11 137 -46 200 -76 104 -51 124 -65 205 -148 76 -76
99 -107 138 -186 51 -104 73 -185 83 -300 5 -63 4 -78 -10 -89 -12 -10 -82
-18 -232 -28 -119 -8 -221 -12 -228 -10 -7 3 -18 41 -24 89 -28 197 -146 320
-335 350 -202 31 -392 -64 -459 -230 l-23 -57 0 -535 0 -535 23 -57 c67 -165
258 -261 458 -230 91 14 150 42 214 99 64 57 108 146 121 244 12 87 25 102 84
95 22 -3 110 -8 195 -11 85 -3 170 -9 188 -12 30 -5 32 -8 32 -47 -1 -126 -46
-288 -111 -398 -105 -179 -295 -312 -525 -370 -76 -19 -116 -22 -269 -22 -152
0 -194 3 -267 22 -270 67 -453 212 -562 443 -72 152 -71 137 -71 789 l0 585
32 95 c41 119 90 204 171 291 127 137 302 225 518 259 99 15 357 4 454 -20z
m2681 -17 c250 -70 415 -223 495 -458 23 -68 28 -102 32 -221 4 -119 1 -152
-16 -222 -53 -210 -188 -366 -387 -448 -27 -11 -50 -24 -50 -30 0 -5 107 -234
239 -508 183 -383 236 -503 229 -515 -9 -14 -43 -16 -241 -19 -210 -2 -233 -1
-249 15 -10 10 -114 232 -232 493 -118 261 -219 481 -224 488 -7 9 -56 12
-183 12 l-174 0 0 -489 c0 -432 -2 -491 -16 -505 -13 -14 -49 -16 -233 -16
-155 0 -220 3 -229 12 -9 9 -12 291 -12 1207 0 658 4 1201 8 1207 4 6 14 14
22 17 8 3 269 5 580 4 541 -3 568 -4 641 -24z m-5211 -11 c46 -13 125 -42 175
-66 172 -82 272 -178 345 -331 70 -146 72 -166 67 -831 -4 -645 -2 -622 -66
-759 -82 -176 -234 -303 -446 -374 -141 -47 -204 -51 -745 -51 -440 0 -500 2
-514 16 -14 14 -16 137 -16 1204 0 1084 1 1190 16 1205 15 15 68 16 558 12
521 -3 544 -4 626 -25z"/>
<path d="M7172 5488 l3 -313 254 -3 c282 -3 343 6 416 56 52 36 102 103 116
155 6 23 11 73 11 110 -1 122 -67 222 -181 276 -56 26 -58 26 -339 29 l-282 3
2 -313z"/>
<path d="M2015 5788 c-3 -7 -4 -366 -3 -798 l3 -785 244 -3 c199 -2 255 1 299
13 133 39 216 134 248 284 17 81 20 888 3 990 -20 125 -100 235 -207 284 -44
21 -65 22 -315 25 -214 3 -268 1 -272 -10z"/>
</g>
</svg>
