<svg xmlns="http://www.w3.org/2000/svg" viewBox="0 0 1000.258 353.502"><path fill="#FFF" d="M554.558 22.972c4.137 8.347 1.707 19.284-2.611 26.778l-33.408 75.163-.289.352-12.076-76.25c-.969-7.322 6.854-10.446 11.459-13.964-.234-1.076-1.418-1.023-2.163-1.524l-11.288-.118-.343-.341c.064-9.466 5.16-18.207 13.794-22.801 9.02-5.212 21.725-3.795 29.549 2.889 3.177 2.834 5.853 6.127 7.376 9.816"/><path fill="#FFF" d="M493.008 20.36c2.73 5.053 4.308 10.789 3.348 17.141l-13.623 87.305c.074.106-.053.224-.161.276l-3.528-7.024-34.144-76.25c-3.177-9.818-.234-20.083 6.918-27.12 7.206-7.312 19.06-9.295 28.484-5.329 4.989 2.154 9.754 6.12 12.706 11.001"/><path fill="#FFF" d="M603.978 57.115c4.594 7.834 3.561 19.689-1.547 26.959-3.164 5.106-8.389 7.654-12.813 11.001L518.87 143.64h-.162l.79-2.323L557 56.668c5.618-9.978 16.342-15.031 27.684-13.507 7.771 1.419 15.542 6.471 19.294 13.954"/><path fill="#FFF" d="M443.259 56.668l39.026 86.963h-.628l-78.68-54.227c-8.007-6.747-11.289-16.853-8.571-27.065 2.036-7.654 8.389-14.806 15.947-17.643 12.375-4.53 26.317.288 32.906 11.972"/><path fill="#FFF" d="M624.509 118.505c3.922 8.283 2.377 19.625-3.23 26.67-5.563 6.749-13.005 10.437-21.736 10.202l-83.893.054 70.279-48.896c6.867-4.424 17.303-5.225 24.797-1.643 5.787 2.271 11.235 7.942 13.783 13.613"/><path fill="#FFF" d="M376.08 118.505c-3.911 8.283-2.377 19.625 3.241 26.67 5.564 6.749 12.983 10.437 21.725 10.202l83.893.054-70.28-48.896c-6.865-4.424-17.3-5.225-24.784-1.643-5.79 2.271-11.236 7.942-13.795 13.613"/><path fill="#FFF"  d="M225.435 205.65c-40.763 0-73.893 33.152-73.893 73.916 0 40.753 33.13 73.925 73.893 73.925 40.764 0 73.916-33.172 73.916-73.925 0-40.763-33.152-73.916-73.916-73.916m0 133.28c-32.736 0-59.375-26.637-59.375-59.363 0-32.717 26.639-59.355 59.375-59.355 32.737 0 59.376 26.639 59.376 59.355 0 32.726-26.639 59.363-59.376 59.363M862.724 280.504c-3.965-2.08-28.088-14.498-31.553-16.299-12.653-6.471-17.141-12.185-17.141-21.864 0-13.452 11.045-22.14 28.173-22.14 10.054 0 19.774 4.424 25.478 7.632a7.418 7.418 0 003.539.885c3.987 0 7.26-3.272 7.26-7.259a7.303 7.303 0 00-3.635-6.301c-7.184-4.009-19.434-9.498-32.642-9.498-25.167 0-42.724 15.072-42.724 36.681 0 19.391 12.749 28.537 25.222 34.912 3.495 1.78 27.896 14.358 31.552 16.287 9.637 5.042 14.967 12.611 14.967 21.321 0 11.672-9.891 24.08-28.194 24.08-17.803 0-31.628-11.939-35.444-15.617l-1.142-1.088-10.755 9.807 1.257 1.258c4.775 4.735 22.237 20.19 46.084 20.19 26.735 0 42.714-19.646 42.714-38.63 0-14.177-8.379-26.705-23.016-34.357M73.895 220.211c15.872 0 30.785 6.184 41.978 17.365 2.665 2.654 7.675 2.654 10.297 0 1.386-1.354 2.121-3.176 2.121-5.127 0-1.93-.735-3.774-2.121-5.128l-.895-.917c-13.837-13.389-32.097-20.754-51.38-20.754C33.152 205.65 0 238.813 0 279.555c0 40.765 33.152 73.937 73.895 73.937 21.51 0 40.89-9.229 54.396-23.942l-10.287-10.297c-10.873 12.067-26.607 19.678-44.11 19.678-32.726 0-59.365-26.648-59.365-59.375.001-32.695 26.64-59.345 59.366-59.345M574.941 220.211c15.852 0 30.785 6.184 41.977 17.365 2.654 2.654 7.666 2.654 10.288 0a7.113 7.113 0 002.153-5.127c0-1.93-.768-3.774-2.153-5.128l-.885-.917c-13.868-13.389-32.107-20.754-51.38-20.754-40.752 0-73.916 33.162-73.916 73.904 0 40.765 33.164 73.937 73.916 73.937 21.5 0 40.88-9.229 54.407-23.942l-10.298-10.297c-10.873 12.067-26.629 19.678-44.109 19.678-32.737 0-59.387-26.648-59.387-59.375 0-32.694 26.65-59.344 59.387-59.344M449.741 205.65c-2.729 0-4.883 1.759-6.056 4.029-1.194 2.27-43.492 106.897-43.502 106.897 0 0-42.298-104.628-43.482-106.897-1.183-2.271-3.335-4.029-6.064-4.029-3.188 0-5.586 2.345-6.428 5.299-.842 2.973-24.709 134.653-24.709 134.653a6.78 6.78 0 00-.128 1.333c0 3.623 2.953 6.556 6.556 6.556a6.546 6.546 0 006.438-5.297l20.669-112.664s39.879 98.518 41.041 100.862c1.173 2.335 3.347 4.158 6.119 4.158 2.771 0 4.936-1.823 6.097-4.158 1.173-2.345 41.051-100.862 41.051-100.862l21.479 117.151h13.348s-25.147-138.76-25.989-141.732c-.855-2.954-3.254-5.299-6.44-5.299M712.527 205.66c-2.761-.01-4.902 1.791-6.107 4.136-1.195 2.335-54.738 134.582-54.738 134.582a6.708 6.708 0 00-.502 2.558c0 3.623 2.932 6.566 6.556 6.566 2.761 0 5.128-1.727 6.099-4.168L684.62 298.2h55.825l22.174 54.481h14.166s-56.987-140.551-58.159-142.886c-1.164-2.344-3.328-4.145-6.099-4.135m-21.981 77.987l21.98-54.046 22.002 54.046h-43.982zM992.966 206.438h-82.293c-4.009 0-7.26 3.263-7.26 7.281 0 3.997 3.251 7.259 7.26 7.259h34.494V352.67h13.326V220.979h34.473c4.009 0 7.292-3.262 7.292-7.259 0-4.019-3.283-7.282-7.292-7.282"/></svg>