<svg xmlns="http://www.w3.org/2000/svg" viewBox="-2.38 -2.38 186.487 84.092"><path d="M11.696 13.723c-.03.059-.01.157.022.204a.685.685 0 00.232-.08c.074-.044.095-.08.174-.137-.076-.005-.416-.007-.428.013" fill="#fff"/><path d="M19.898 5.602c0 .21-.32.333-.385.428-.032.047-.06.077-.073.127-.039-.135.034-.248.034-.345 0-.11-.078-.163-.189-.163-.167 0-.619.406-.346 1.059-.019-.231.067-.385.106-.426a.281.281 0 00.066-.197c.089.162.105.233.105.362 0 .28-.201.337-.106.543.017.057.035.103.065.177 0-.1.017-.184.034-.253.017-.067.125-.196.137-.247a.36.36 0 00.004-.168c.09.111.15.209.15.389 0 .21-.094.33-.12.39-.025.06-.055.119-.069.221-.057.463-.285.68-.585.68-.188 0-.328-.029-.448-.106 0 .594-.677.547-.677.935 0 .107.073.235.147.309.071.072.346.173.447.306-.146.01-.306.061-.391.16.242.12.236.257.267.442-.238-.12-.347-.05-.408.014-.073.078-.038.179-.122.298-.038-.094-.1-.173-.203-.173-.103 0-.315.185-.318.245-.009.163-.086.226-.232.245-.109.118-.084.176-.08.285-.094-.089-.11-.147-.073-.31-.11-.045-.096-.137-.064-.217l-.04-.03c-.06.053-.12.127-.267.06a.282.282 0 00-.14.212c-.039-.245.039-.33.079-.366-.025-.055.011-.171.11-.215 0-.024-.01-.036-.013-.049-.081 0-.149-.033-.179-.085-.078-.016-.186.079-.206.135 0-.138.109-.278.19-.31.093-.183.268-.215.374-.109a.54.54 0 00.341.121c.141 0 .271-.117.306-.163a.373.373 0 00.055-.095c.03-.07.09-.154-.055-.339-.115-.144-.403-.426-.408-.628a.793.793 0 01.293-.655h-.117c-.213 0-.23-.132-.445-.132-.159 0-.253.157-.253.295 0 .137.025.166.074.255.065.121.089.188.071.311-.125-.112-.302-.169-.442-.044-.055.16-.09.22-.191.297-.008-.133-.278-.342-.52-.118-.024.056-.044.181-.214.181-.1 0-.09-.023-.131-.04a.413.413 0 00-.148.212.333.333 0 01.056-.298c-.016-.056-.01-.197.062-.236-.022-.024-.014-.007-.034-.041-.104.089-.271.099-.343-.002-.06.012-.12.055-.185.186a.414.414 0 01.138-.329c.001-.1.141-.19.284-.158.01-.018-.002-.03.014-.05.013-.022-.005-.012-.005-.012-.043-.022-.18-.027-.17-.197-.082-.03-.16.009-.217.059a.304.304 0 01.27-.2c.034-.064.138-.072.192-.072.098 0 .165.048.18.11.102.178.328.237.55.237a.204.204 0 00.206-.213c0-.129-.219-.502-.219-.674 0-.17.308-.498.513-.498.626 0 .77.26.91.26.198 0 .225-.04.255-.072-.294-.363-.483-.355-.764-.548a.59.59 0 01-.235-.414c-.175.04-.345.272-.426.417-.04-.068-.1-.115-.172-.115-.138 0-.238.182-.305.337-.038-.178-.145-.342-.348-.342-.114 0-.243.049-.275.123a.262.262 0 01-.308.14c-.06.042-.115.06-.157.245-.058-.231 0-.276.032-.334-.032-.152.03-.207.06-.245l-.016-.041c-.092.03-.227.02-.265-.059-.103-.005-.132.007-.22.14.017-.149.102-.271.195-.306.035-.088.156-.124.251-.124.009-.024.016-.024.02-.045a.207.207 0 01-.103-.206c-.076-.089-.16-.033-.23-.007.122-.128.267-.175.365-.119.212-.07.284.029.304.146.024.137.236.155.455.155.481 0 1.243-.446 1.188-.8-.114-.028-.127-.025-.215-.025-.257 0-.578.321-.83.325.126-.142.049-.287.118-.392-.138-.004-.28.084-.545.06.09-.054.15-.24.15-.305 0-.067 0-.197-.285-.197-.027.007-.103.033-.16.033-.068 0-.257-.018-.257-.166-.093-.02-.163.004-.263.08.02-.103.215-.233.273-.242.039-.08.117-.115.156-.11.01-.04.008-.004.01-.052-.096-.014-.22-.049-.217-.21-.069-.063-.112-.076-.265-.036.191-.141.258-.12.32-.098.14-.105.255-.047.293-.002.017-.02.032-.024.04-.04-.033-.102-.013-.2.03-.246-.004-.11-.053-.145-.157-.166.211.004.296.052.365.13.121.016.197.122.2.199.004.2-.208.335.199.545.126.065.305.13.483.183.18.053.402.133.492.133-.07-.109-.042-.219-.155-.329.13-.009.288.036.406.061-.024-.16.015-.16-.09-.257.09.012.216.014.286.021.463.05.469-.18.559-.471a1.363 1.363 0 00-.675.216c.024-.087-.002-.156-.002-.23 0-.137.107-.166.162-.166.024 0 .093-.01.144-.01.103 0 .244-.115.178-.341-.032-.108-.114-.174-.208-.147-.069.02-.085.018-.186.055-.078.03-.101.09-.11.172-.016-.038-.044-.142-.058-.168-.015-.03-.025-.049-.052-.119-.01-.02-.007-.02-.02-.05-.049-.113.029-.208.126-.227.081-.018.211-.05.293-.074.16-.049.21-.111.243-.195.037-.089.06-.124.207-.124.046 0 .213.004.29.004.225 0 .476-.182.393-.376.157.029.22.278.18.376.073 0 .317-.047.372-.093-.001.167-.133.375-.227.427.12.013.33-.005.393-.06-.039.128-.175.401-.26.44.207.071.345.184.439.444-.16-.066-.253.012-.392-.01.285.333.392.84.474.967-.077-.041-.231-.127-.346-.17.117.276-.058.549-.031.696-.089-.05-.205-.115-.243-.188-.047.112-.145.33-.107.612-.073-.077-.197-.137-.252-.18-.107.154-.172.253-.172.646 0 .538.251 1.052.36 1.255.166.313.209.58.235.685.052.21.204.347.401.347.193 0 .355-.175.355-.39 0-.39-.474-.635-.474-1.32 0-.45.345-.673.355-.96.01-.253-.223-.095-.396-.21.221-.043.353-.29.55-.278.174.01.214.103.224.191.012.123-.068.264-.093.315a.832.832 0 00.28-.55c0-.192-.27-.405-.2-.773.008-.05.008-.043.02-.073.08.414.668.521.668.931 0 .387-.334.313-.525.582.209-.085.446-.043.446.187zm-3.955-2.825c-.054.195-.052.445.22.445.212 0 .583-.182.66-.218l.032.07c-.061.025-.545.413-.934.418-.218.002-.292-.13-.292-.257 0-.197.155-.268.314-.458zM9.046 6.224c0 .201-.307.32-.37.411-.03.045-.056.073-.068.123-.038-.131.032-.238.032-.333 0-.106-.075-.155-.181-.155-.161 0-.594.39-.333 1.015-.018-.222.064-.367.102-.408a.268.268 0 00.062-.19c.086.156.103.225.103.348 0 .268-.193.323-.103.522.018.053.034.098.063.168 0-.093.016-.176.033-.24.015-.067.118-.19.13-.24a.341.341 0 00.005-.16c.087.107.144.2.144.374 0 .2-.091.316-.116.374-.024.057-.053.114-.065.212-.055.444-.274.652-.561.652-.182 0-.317-.028-.432-.102 0 .57-.648.524-.648.898 0 .104.07.225.14.295.068.07.332.167.43.294-.142.01-.295.06-.375.153.232.117.226.248.256.425-.229-.115-.334-.047-.393.014-.07.074-.036.171-.116.285-.037-.09-.097-.166-.195-.166-.1 0-.302.179-.305.236-.009.155-.082.216-.222.235-.105.111-.08.169-.077.274-.091-.086-.106-.143-.07-.299-.106-.042-.093-.13-.062-.207l-.039-.028c-.057.05-.115.121-.255.055a.277.277 0 00-.136.205c-.036-.235.039-.317.077-.351-.025-.054.01-.165.105-.206 0-.024-.009-.035-.012-.047-.078 0-.144-.032-.171-.082-.075-.015-.18.075-.2.13 0-.133.107-.266.185-.298.087-.175.256-.206.357-.105a.512.512 0 00.328.117c.136 0 .26-.113.293-.158a.32.32 0 00.053-.091c.031-.066.089-.146-.053-.324-.11-.139-.386-.409-.392-.602a.772.772 0 01.282-.63h-.113c-.203 0-.22-.127-.427-.127-.15 0-.24.152-.24.284 0 .131.023.159.07.244.062.117.084.181.068.3-.12-.108-.29-.163-.425-.043-.053.153-.085.212-.183.284-.009-.126-.267-.327-.5-.112-.023.053-.043.175-.205.175-.096 0-.087-.024-.127-.04a.401.401 0 00-.141.203.327.327 0 01.053-.286c-.015-.054-.01-.189.06-.226-.022-.023-.013-.007-.032-.04-.101.085-.26.095-.33-.002-.058.012-.114.054-.176.179a.4.4 0 01.13-.315c.002-.098.136-.182.273-.153.01-.016 0-.027.013-.047.015-.02-.005-.012-.005-.012-.04-.02-.17-.027-.161-.188-.08-.03-.155.009-.21.055a.296.296 0 01.26-.192c.033-.06.133-.067.183-.067.095 0 .16.045.175.105.097.17.314.226.528.226a.196.196 0 00.196-.205c0-.122-.209-.481-.209-.646 0-.163.295-.478.493-.478.6 0 .739.25.874.25.188 0 .213-.038.245-.068-.284-.348-.465-.342-.735-.528a.577.577 0 01-.227-.396c-.167.039-.328.262-.407.401-.038-.066-.095-.111-.164-.111-.134 0-.23.175-.292.324-.039-.172-.14-.329-.335-.329-.11 0-.234.047-.265.119a.25.25 0 01-.294.133c-.059.042-.111.058-.153.237-.053-.224.001-.265.033-.322-.033-.146.029-.2.056-.235l-.015-.04c-.087.03-.216.02-.255-.056-.097-.005-.125.007-.21.134.018-.142.098-.26.188-.294.033-.084.148-.117.24-.117.008-.024.015-.024.02-.044a.198.198 0 01-.1-.197c-.073-.085-.154-.033-.222-.007.12-.123.258-.17.352-.114.203-.068.273.027.292.141.023.13.226.148.438.148.46 0 1.19-.43 1.137-.768-.109-.029-.12-.024-.206-.024-.245 0-.553.308-.795.312.121-.137.046-.275.112-.377-.132-.005-.268.08-.522.057.086-.05.145-.23.145-.293 0-.062 0-.187-.274-.187-.027.007-.1.03-.156.03-.064 0-.245-.016-.245-.158-.09-.02-.155.004-.253.075.02-.097.207-.222.262-.231.038-.077.113-.11.15-.105.008-.039.007-.004.01-.05-.093-.014-.21-.048-.208-.201-.066-.062-.107-.074-.255-.035.183-.137.248-.117.308-.094.134-.1.244-.045.281-.002.016-.019.03-.023.038-.038-.032-.098-.013-.193.03-.236-.004-.106-.053-.139-.152-.16.203.004.285.05.35.125.117.015.19.116.192.19.004.191-.2.323.19.524.122.062.293.125.466.175.171.051.385.129.471.129-.067-.105-.039-.21-.15-.317.126-.009.278.035.391.058-.023-.153.014-.153-.087-.246.086.012.209.013.275.02.444.048.45-.172.536-.452a1.306 1.306 0 00-.647.208c.022-.084-.003-.15-.003-.221 0-.132.103-.16.155-.16.023 0 .09-.01.14-.01.097 0 .232-.11.17-.327-.032-.102-.11-.167-.2-.14-.067.02-.082.018-.18.053-.073.027-.097.086-.104.165-.015-.036-.043-.136-.055-.16-.015-.03-.025-.049-.051-.115-.01-.021-.006-.021-.02-.049-.045-.109.028-.2.122-.217.078-.017.203-.05.28-.072.155-.046.203-.106.235-.187.035-.085.055-.119.198-.119.045 0 .205.005.278.005.215 0 .457-.176.377-.361.15.026.21.266.172.361.07 0 .304-.046.356-.091 0 .162-.126.361-.216.41.115.012.316-.004.378-.058-.038.124-.17.385-.252.424.2.069.332.175.422.425-.153-.064-.242.013-.374-.009.272.32.374.806.452.928-.073-.04-.22-.123-.33-.163.112.265-.056.526-.03.668-.086-.05-.197-.112-.233-.182-.045.108-.14.317-.103.588-.07-.074-.19-.131-.242-.173-.103.147-.164.242-.164.62 0 .515.24 1.009.345 1.204.16.301.199.555.225.658.05.2.195.33.385.33.185 0 .341-.167.341-.372 0-.373-.456-.61-.456-1.267 0-.431.331-.645.341-.92.01-.243-.215-.093-.38-.201.213-.042.338-.278.528-.268.167.01.206.099.213.185.014.116-.063.253-.087.301a.8.8 0 00.267-.527c0-.185-.258-.39-.192-.744.01-.047.009-.04.021-.069.076.398.64.5.64.894 0 .371-.32.3-.502.558.2-.082.427-.04.427.18zM5.25 3.513c-.05.187-.047.429.214.429.202 0 .557-.175.631-.21l.031.067c-.059.024-.522.395-.895.4-.21.004-.281-.122-.281-.246 0-.189.149-.256.3-.44zM21.46 0C14.783.058 8.516.71 3.846 1.762c-1.848.416-2.535 1.755-2.735 2.823-.566 3.03-1.298 9.022-1.067 15.18 1.136-1.08 11.604-11.26 11.604-11.26l10.877 10.86c0-7.457-.487-14.6-1.065-19.365m-7.15 16.823c0 .199-.301.315-.362.404-.032.045-.057.072-.07.12-.035-.128.033-.234.033-.325 0-.105-.073-.154-.177-.154-.159 0-.585.384-.328.999-.017-.22.064-.363.1-.403a.27.27 0 00.063-.185c.082.151.1.22.1.341 0 .263-.19.318-.101.513.016.052.033.097.06.166 0-.092.017-.174.033-.239.017-.063.118-.185.13-.233a.334.334 0 00.003-.158.524.524 0 01.143.368c0 .197-.09.31-.114.366-.024.057-.053.114-.064.21-.055.436-.27.64-.554.64-.176 0-.31-.028-.422-.1 0 .56-.638.516-.638.882 0 .102.07.222.137.292.069.067.327.163.423.288-.138.01-.288.058-.368.15.228.114.222.244.252.418-.225-.113-.327-.048-.386.014-.069.072-.035.167-.114.28-.036-.09-.096-.163-.192-.163-.098 0-.297.174-.299.23-.009.154-.081.214-.22.231-.103.11-.079.167-.075.27-.089-.085-.103-.14-.069-.293-.104-.042-.091-.13-.06-.205l-.039-.027c-.056.05-.112.12-.25.055-.053.023-.122.104-.133.2-.037-.23.036-.31.075-.345-.024-.052.01-.16.103-.202 0-.023-.009-.035-.01-.046-.078 0-.143-.03-.17-.08-.075-.015-.176.073-.195.127a.36.36 0 01.18-.292c.087-.173.252-.203.352-.103a.504.504 0 00.322.115c.134 0 .256-.111.288-.156a.328.328 0 00.052-.089c.03-.066.086-.145-.052-.317-.11-.138-.38-.403-.385-.593a.746.746 0 01.277-.619h-.111c-.2 0-.216-.125-.42-.125-.149 0-.238.15-.238.279 0 .129.024.156.07.24.062.115.084.178.068.294-.118-.105-.285-.159-.419-.041-.051.148-.084.207-.179.28-.009-.125-.263-.323-.492-.112-.023.053-.043.172-.201.172-.095 0-.085-.023-.125-.04a.387.387 0 00-.14.2.321.321 0 01.055-.28c-.017-.053-.012-.185.057-.223-.021-.022-.012-.008-.031-.04-.1.084-.255.095-.324 0-.057.01-.112.05-.174.174a.39.39 0 01.13-.31c.001-.095.132-.177.267-.149.01-.016-.002-.027.012-.047s-.005-.01-.005-.01c-.039-.023-.166-.028-.159-.188-.077-.027-.15.01-.205.057a.292.292 0 01.255-.19c.033-.06.13-.067.18-.067.094 0 .157.045.173.104.094.168.307.223.517.223.105 0 .194-.08.194-.2 0-.122-.205-.474-.205-.635 0-.162.29-.472.484-.472.59 0 .726.247.859.247.186 0 .21-.039.24-.068-.28-.341-.455-.335-.722-.517a.57.57 0 01-.222-.39c-.164.037-.324.257-.401.393-.037-.065-.093-.108-.162-.108-.13 0-.225.17-.286.317-.037-.167-.137-.321-.329-.321-.107 0-.23.045-.26.115a.246.246 0 01-.29.131c-.057.041-.108.058-.148.233-.055-.22 0-.262.03-.315-.03-.145.03-.197.057-.232l-.016-.038c-.085.027-.211.017-.249-.057-.097-.004-.125.01-.207.132.016-.14.096-.254.183-.29.033-.08.147-.114.238-.114.007-.024.014-.024.019-.043a.194.194 0 01-.098-.195c-.072-.083-.152-.03-.219-.006.117-.12.254-.166.345-.112.2-.066.27.026.288.139.022.127.222.145.43.145.452 0 1.171-.422 1.119-.755-.108-.028-.12-.023-.203-.023-.242 0-.545.303-.782.306.118-.135.046-.27.11-.37-.13-.005-.263.078-.513.055.084-.05.143-.225.143-.287 0-.062 0-.184-.27-.184a.617.617 0 01-.153.03c-.062 0-.24-.015-.24-.156-.089-.019-.152.004-.247.075.018-.098.2-.219.255-.228.037-.075.112-.107.15-.103.007-.04.005-.004.007-.05-.092-.012-.207-.045-.204-.197-.065-.06-.106-.072-.251-.035.18-.133.243-.113.302-.091.133-.099.239-.045.276-.002.017-.02.03-.022.038-.039-.031-.096-.013-.19.029-.23-.002-.106-.052-.137-.148-.158.198.005.279.05.344.122.115.015.186.116.187.188.004.188-.195.316.19.515.118.06.285.122.455.172.17.049.378.125.463.125-.066-.102-.039-.206-.146-.31.122-.007.272.034.383.058-.023-.15.014-.15-.085-.243.084.011.204.013.27.02.435.046.442-.17.527-.445-.149.01-.399.046-.637.204.023-.081-.002-.146-.002-.216 0-.13.103-.157.153-.157.024 0 .089-.01.137-.01.095 0 .23-.108.167-.32-.03-.102-.108-.166-.197-.14-.065.02-.08.018-.175.053-.072.027-.096.085-.103.161-.015-.035-.041-.134-.054-.157-.014-.03-.024-.047-.051-.113-.007-.02-.006-.02-.018-.047-.045-.107.027-.197.12-.215.077-.015.2-.047.275-.07.152-.044.2-.104.23-.183.034-.084.055-.116.194-.116l.274.002c.211 0 .449-.171.371-.354.146.026.205.261.17.354.068 0 .298-.044.35-.089 0 .16-.125.355-.214.404.113.011.312-.005.372-.056-.037.12-.167.377-.247.415.197.067.325.173.414.417-.15-.061-.237.013-.369-.007.27.315.37.793.447.911-.073-.038-.218-.12-.327-.16.112.26-.053.518-.028.657-.085-.05-.194-.11-.23-.178-.044.105-.137.311-.102.576-.067-.072-.185-.128-.237-.168-.1.143-.161.237-.161.608 0 .507.236.993.34 1.184.156.295.195.546.22.646.05.198.192.325.38.325.18 0 .333-.165.333-.366 0-.366-.447-.6-.447-1.245 0-.424.326-.635.335-.905.009-.239-.21-.09-.374-.196.21-.043.334-.274.519-.264.165.01.202.098.211.181.013.115-.062.25-.086.297a.787.787 0 00.262-.52c0-.18-.255-.382-.189-.73.01-.045.01-.04.02-.068.075.391.63.493.63.879 0 .365-.315.296-.496.549.199-.08.421-.04.421.176zm-3.73-2.664c-.05.184-.047.42.21.42.2 0 .549-.171.621-.205l.03.066c-.057.023-.512.388-.88.393-.206.004-.276-.12-.276-.241 0-.187.145-.253.295-.433zm1-3.257L.121 22.004c8.182 1.125 15.34 1.205 20.972 1.208h.103s.047-.38.09-.755c.04-.344.18-.527.518-.558l.71-.067v-.013L11.58 10.902m15.596 15.696c5.645 0 12.07.03 20.302 1.162-1.112 6.36-8.378 20.74-20.085 26.895-.578-4.763-1.544-16.373-1.544-23.83l.044-2.74-.006-.108.678-.063c.34-.031.477-.214.518-.557l.091-.755.002-.004m-4.665 1.382l-.71-.066c-.339-.033-.48-.214-.517-.559-.034-.319-.092-.754-.092-.754l.002-.004c-5.647 0-12.013.03-20.245 1.163 1.11 6.357 8.377 20.74 20.084 26.895.579-4.764 1.491-16.375 1.491-23.831l-.012-2.69v-.159l-.001.005m25.579-5.976c.446-4.253.025-12.795-.82-17.419-.197-1.07-.89-2.394-2.735-2.824C39.815.662 33.575.051 26.922 0c-.579 4.764-1.067 11.365-1.067 18.822l.007 2.852v.157l.708.066c.339.032.469.217.518.558.047.336.09.755.09.755s12.68-.075 20.91-1.206" fill="#fff"/><path d="M6.388 3.07c-.032.06-.01.16.02.208a.733.733 0 00.237-.08c.076-.048.098-.083.178-.14-.078-.006-.424-.007-.435.012M17.126 2.315c-.032.062-.011.167.023.217a.746.746 0 00.246-.084c.079-.049.101-.086.185-.145-.081-.006-.442-.01-.454.012" fill="#fff"/><path fill="#fff" d="M173.576 33.232c3.805 0 5.438 2.047 5.438 5.462v8.818c0 1.506.752 1.92 2.714 1.958v.792c-1.698-.114-3.167-.188-4.372-.188-1.13 0-2.6.036-4.37.188v-.792c1.922-.038 2.674-.49 2.674-1.883 0-.04.039-.265.039-.604V38.13c0-2.41-1.131-3.693-3.278-3.693-2.646 0-4.446 1.897-4.446 5.288v7.787c0 1.468.753 1.92 2.636 1.958v.792c-1.618-.114-3.05-.188-4.293-.188-1.358 0-2.712.074-4.182.188v-.792c1.77-.076 2.524-.527 2.524-1.883V38.13c0-2.375-1.13-3.693-3.28-3.693-2.606 0-4.444 2.072-4.444 5.463v7.612c0 1.506.754 1.92 2.713 1.958v.792c-1.695-.114-3.166-.188-4.37-.188-1.131 0-2.444.036-4.214.188v-.792c1.92-.038 2.555-.49 2.555-1.883v-9.645c0-2.187-.339-2.9-2.374-2.9h-.337v-.755c1.47 0 3.202-.528 5.311-1.432.303 1.13.446 2.345.446 3.475 0 .164.013.312 0 .34 1.004-2.067 3.36-3.476 5.96-3.476 3.763 0 4.995 2.436 5.01 3.55.555-1.459 2.527-3.512 5.94-3.512m-36.118 12.886c0 1.771.94 3.101 2.637 3.101 2.516 0 4.258-1.65 4.258-3.522v-5.374c-4.672 1.846-6.895 3.46-6.895 5.795zm6.852 2.025c-.816.879-2.146 2.422-5.64 2.422-2.841 0-4.715-1.503-4.715-3.78 0-2.487 2.034-4.013 6.176-5.633l2-.754c1.732-.678 2.297-.64 2.297-1.959v-.817c0-2.374-.904-3.637-3.73-3.637-2.923 0-3.012 1.26-3.137 2.323-.08.67-.253 1.446-1.486 1.446-.716 0-1.219-.604-1.219-1.395 0-1.621 2.097-3.127 6.22-3.127 4.408 0 6.478 1.395 6.478 4.333v9.57c0 1.47.474 2.084 1.264 2.084.527 0 .95-.241 1.375-.804l.49.528c-.793 1.244-1.848 1.62-3.318 1.62-1.745 0-2.801-.995-3.055-2.42m-25.449-11.546c1.14-2.147 3.467-3.328 6.067-3.328 3.54 0 5.576 1.829 5.576 4.935v9.308c0 1.506.752 1.92 2.711 1.957v.793c-1.695-.114-3.164-.19-4.37-.19-1.13 0-2.6.037-4.37.19v-.793c1.923-.037 2.713-.49 2.713-1.882v-9.155c0-2.677-1.168-3.995-3.542-3.995-2.56 0-4.785 2.26-4.785 5.426v7.649c0 1.506.754 1.92 2.713 1.957v.793c-1.696-.114-3.164-.19-4.371-.19a50.56 50.56 0 00-4.37.19v-.793c1.922-.037 2.713-.49 2.713-1.882V27.159c0-1.657-.753-2.26-2.713-2.299v-.677c1.167-.076 3.165-.414 6.028-1.093v13.507m-8.116-3.14c1.924 0 3.018 1.056 3.018 2.09 0 .943-.59 1.415-1.233 1.415-1.92 0-.977-2.185-2.99-2.185-1.904 0-3.804 1.807-3.804 5.086v7.649c0 1.506.754 1.92 2.712 1.957v.793c-1.695-.114-3.164-.19-4.37-.19-1.132 0-2.6.037-4.37.19v-.793c1.92-.037 2.712-.49 2.712-1.882V38.318c0-2.486-.602-3.315-2.676-3.315h-.413v-.755c1.733-.225 3.512-.461 5.433-1.064.486 1.098.639 3.234.639 3.936.672-1.572 2.473-3.662 5.342-3.662m-29.501.226c.791 0 1.809-.037 2.94-.075v11.98c0 2.561 1.204 3.881 3.54 3.881 2.562 0 4.747-2.26 4.747-5.426v-7.157-.678c0-1.167-.79-1.771-2.41-1.771h-.302v-.829c1.167.038 2.222.075 3.126.075.793 0 1.77-.037 2.901-.075v12.47c0 2.035.295 3.373 2.177 3.373.152 0 .203.01.355.01v.79c-1.84-.168-3.23-.15-5.644-.034l-.09-2.97c-1.469 2.336-3.466 3.39-6.14 3.39-4.333 0-5.576-2.073-5.576-5.876v-7.875c0-.377-.038-.603-.038-.678 0-1.167-.791-1.771-2.374-1.771h-.3v-.829c1.167.038 2.184.075 3.088.075M59.24 44.195c0 3.467.792 5.162 4.522 5.162 6.065 0 8.513-4.6 8.513-12.06 0-8.707-3.292-11.57-10.058-11.57-2.26 0-2.977 0-2.977 2.073v16.395zm-7.497 5.238c3.127-.076 3.616-.829 3.616-3.428v-16.73c0-2.605-.489-3.358-3.616-3.433v-.867c1.431.038 2.712.075 3.881.075 2.901 0 4.584-.15 7.121-.15 5.31 0 9.033 1.377 11.338 4.043 1.736 2.005 2.714 4.692 2.714 8.309 0 4.067-1.255 7.26-3.442 9.478-2.287 2.32-5.61 3.57-10.31 3.57-2.298 0-4.71-.113-7.158-.113-1.357 0-2.713 0-4.144.076v-.83m95.929 12.499c.363 0 1.307-.024 2.785-.097v.534c-.968.024-1.404.169-1.404.8 0 .145.071.386.169.654l2.422 6.251 2.304-5.574c.17-.41.242-.847.242-1.21 0-.656-.363-.897-1.26-.92v-.535c.727.05 1.308.097 1.697.097.485 0 1.29-.048 1.922-.097v.534h-.072c-1.067 0-1.222.531-1.707 1.72l-3.126 7.536c-2.227 5.404-3.172 7.707-4.289 7.707-.387 0-.753-.267-.753-.704 0-.794.816-.98 1.407-1.331.606-.36 1.123-1.445 2.158-3.782l.45-1.03-3.48-8.347c-.435-1.043-.508-1.769-1.742-1.769v-.534c.92.073 1.647.097 2.277.097m-5.633-2.738v2.666h2.711v.727h-2.686v7.295c0 1.452.41 2.18 1.526 2.18.653 0 1.282-.36 1.765-1.112l.392.36c-.582 1.043-1.585 1.48-2.81 1.48-1.975 0-2.932-1.02-2.932-3.03v-7.173h-1.137v-.39c1.065-.628 2.009-1.647 2.76-3.003h.411m-6.241-2.691c0 .679-.558 1.237-1.261 1.237a1.225 1.225 0 01-1.234-1.237c0-.703.531-1.261 1.234-1.261.678 0 1.26.558 1.26 1.26zm-.001 13.934v.34c0 .92.46 1.212 1.649 1.26v.51a33.199 33.199 0 00-2.667-.123c-.87 0-1.74.049-2.638.123v-.51c1.138-.048 1.6-.34 1.6-1.213v-5.84-.606c0-1.186-.073-1.623-1.333-1.623h-.195v-.485c1.066-.096 2.203-.41 3.584-.92v9.087m-6.15-7.452l.024 1.567h-.477c-.266-1.407-1.227-2.452-2.945-2.452-1.067 0-1.814.684-1.814 1.483 0 1.195.854 1.422 2.374 2.18.741.375 1.395.657 1.931.99.985.61 1.573 1.387 1.573 2.614 0 2.083-1.521 3.518-4.026 3.518-1.093 0-2.137-.363-2.935-.993l-.33.678h-.414c.027-.896.027-1.43.027-1.622 0-.389-.027-.946-.027-1.698h.422c.374 1.914 1.552 3.054 3.284 3.054 1.505 0 2.32-.95 2.32-1.967 0-1.267-.865-1.64-2.57-2.44-2.027-.977-3.255-1.597-3.255-3.398 0-1.654 1.601-2.93 3.361-2.93 1.293 0 1.825.216 2.652.653l.506-.605h.346l-.027 1.368m-9.673-1.247c1.235 0 1.964.534 1.964 1.284 0 .606-.365.968-.849.968-1.091 0-.534-1.405-1.891-1.405-1.333 0-2.446 1.297-2.446 3.272v4.92c0 .97.483 1.235 1.743 1.26v.51c-1.09-.074-2.036-.123-2.81-.123-.727 0-1.645.025-2.785.123v-.51c1.235-.025 1.747-.314 1.747-1.212v-5.961c0-1.599-.39-2.134-1.723-2.134h-.266v-.483c1.114-.147 2.276-.435 3.511-.824.305.812.41 2.287.385 2.657.489-1.226 1.695-2.342 3.42-2.342m-10.459 2.884c0-1.624-1.017-2.544-2.375-2.544-1.55 0-2.763 1.162-3.005 3.101h5.308c.047-.315.072-.509.072-.557zm-5.525 1.26c-.05.51-.073.897-.073 1.212 0 2.909 1.623 4.846 3.877 4.846 1.284 0 2.133-.46 3.125-1.6l.436.462c-.992 1.406-2.397 2.083-4.24 2.083-3.342 0-5.521-2.398-5.521-5.452 0-3.076 2.274-5.864 5.594-5.864 2.642 0 4.509 1.696 4.509 4.095v.218h-7.707m-11.598-3.95c.8 0 1.852-.024 2.627-.097v.534c-.896 0-1.285.12-1.285.679 0 .29.146.919.558 1.866l2.255 5.209 1.065-2.763c.823-2.18 1.382-3.537 1.382-4.167 0-.559-.412-.824-1.26-.824v-.534c.581.05 1.34.097 1.898.097.508 0 1.41-.048 2.017-.097v.534h-.15c-1.265 0-1.607.846-2.311 2.593l-3.126 7.803h-.534L91.6 63.483c-.315-.726-.683-1.114-1.916-1.114v-.534c.92.073 1.933.097 2.708.097m-4.368-5.43c0 .68-.557 1.238-1.259 1.238a1.227 1.227 0 01-1.236-1.237c0-.703.533-1.261 1.236-1.261.679 0 1.259.558 1.259 1.26zm.05 13.935v.34c0 .92.459 1.212 1.648 1.26v.51a34.428 34.428 0 00-2.715-.123c-.872 0-1.742.049-2.638.123v-.51c1.139-.048 1.599-.34 1.599-1.213v-5.84-.606c0-1.186-.073-1.623-1.333-1.623h-.193v-.485c1.066-.096 2.25-.41 3.632-.92v9.087m-10.226-8.82c2.145 0 3.56 1.09 3.56 3.175v5.985c0 .97.482 1.236 1.744 1.26v.51c-1.09-.074-2.008-.123-2.784-.123-.728 0-1.671.025-2.81.123v-.51c1.235-.024 1.744-.314 1.744-1.212V64.938c0-1.723-.752-2.57-2.28-2.57-1.647 0-3.052 1.455-3.052 3.489v4.92c0 .97.484 1.236 1.745 1.26v.51c-1.09-.074-2.007-.123-2.785-.123a32.8 32.8 0 00-2.81.123v-.51c1.237-.024 1.72-.314 1.72-1.212 0-.023.025-.17.025-.387v-5.816c0-1.407-.218-1.865-1.526-1.865h-.219v-.485c.945 0 2.033-.34 3.389-.923.183.431.318 1.054.338 2.514.22-.394 1.295-2.246 4-2.246m-10.3-5.283c.8 0 1.697 0 2.667-.072v.582s-.146-.025-.412-.025c-1.793 0-1.793 1.065-1.793 2.641v7.077c0 .733-.024 1.44-.142 2.022-.702 3.443-3.33 4.35-6.08 4.35-3.62 0-5.837-1.831-6.447-4.417-.097-.415-.175-1.24-.175-2.228V59.05c0-1.672-.315-2.159-2.327-2.205v-.559c1.14.073 2.327.1 3.587.1 1.26 0 2.447-.027 3.587-.1v.56h-.363c-1.697 0-1.964.823-1.964 2.204v7.611c0 .888.045 1.653.235 2.302.572 1.95 2.048 3.1 4.325 3.1 2.764 0 4.457-1.09 4.959-3.585.111-.544.126-1.155.126-1.838V59.46c0-2.035-.121-2.616-2.181-2.616v-.582a34.06 34.06 0 002.399.072"/></svg>