<svg xmlns="http://www.w3.org/2000/svg" viewBox="0 0 27.025 27.025"><style>.a{fill:#1a202c}.b{fill:#fff}@media (prefers-color-scheme: dark){.b{fill:#1a202c}.a{fill:#fff}}</style><path class="a" d="M0 0h27.025v27.025H0z"/><path class="b" d="M4.225 16.818q-.047 0-.085-.028-.028-.038-.028-.085V10.32q0-.048.028-.076.038-.038.085-.038h2.361q.709 0 1.238.255.538.246.83.699.293.453.293 1.048v2.607q0 .595-.292 1.048-.293.453-.831.708-.53.246-1.238.246zm1.219-1.19q0 .047.047.047h1.143q.434 0 .698-.292.274-.293.284-.784v-2.172q0-.492-.274-.784-.265-.293-.718-.293H5.491q-.047 0-.047.047zM13.443 16.894q-.736 0-1.294-.284-.557-.293-.859-.812-.302-.52-.302-1.2v-2.18q0-.68.302-1.2.302-.52.86-.803.557-.283 1.293-.283.727 0 1.275.274.557.264.86.764.311.492.311 1.143 0 .085-.113.104l-1.105.066h-.019q-.094 0-.094-.104 0-.5-.312-.802-.302-.303-.803-.303-.51 0-.821.303-.303.302-.303.802v2.276q0 .491.303.794.311.302.821.302.5 0 .803-.302.312-.303.312-.794 0-.104.113-.104l1.105.048q.047 0 .075.028.038.028.038.066 0 .652-.311 1.152-.303.5-.86.775-.548.273-1.275.273zM21.67 16.818q-.095 0-.133-.085l-1.18-2.616q-.02-.038-.057-.038h-.878q-.047 0-.047.047v2.579q0 .047-.038.085-.029.028-.076.028h-1.105q-.047 0-.085-.028-.028-.038-.028-.085V10.32q0-.047.028-.075.038-.038.085-.038h2.701q.605 0 1.058.246.463.245.708.698.255.454.255 1.049 0 .642-.32 1.105-.322.453-.898.642-.047.019-.028.066l1.284 2.673q.019.037.019.056 0 .076-.104.076zm-2.248-5.468q-.047 0-.047.047v1.615q0 .047.047.047h1.237q.397 0 .642-.236.255-.236.255-.614 0-.377-.255-.614-.245-.245-.642-.245z"/></svg>
